<svg width="288" height="94" viewBox="0 0 288 94" fill="none" xmlns="http://www.w3.org/2000/svg">
<path fill-rule="evenodd" clip-rule="evenodd" d="M116.356 5.63542C115.976 6.10633 115.644 6.17882 115.223 5.88178C114.399 5.30145 111.092 7.24915 110.641 8.58014C110.383 9.3387 110.333 9.15501 110.441 7.85205L110.586 6.10933L108.646 6.6022C105.809 7.32335 104.979 7.44105 104.463 7.19565C103.797 6.87915 100.953 7.40207 100.383 7.94588C100.065 8.24924 99.8147 8.21585 99.6561 7.84755C99.4619 7.39719 99.1307 7.41578 97.9793 7.94077C97.001 8.38656 96.2702 8.47473 95.6833 8.21814C95.0267 7.93053 94.6227 8.07267 93.9797 8.81764C93.2785 9.62985 92.8118 9.76468 91.2097 9.61979C90.1498 9.52362 89.0858 9.52735 88.8452 9.62784C88.6046 9.72788 87.3019 9.95668 85.9503 10.1358C82.0442 10.6538 81.9297 10.6796 81.9572 11.0387C81.9715 11.2264 81.3398 11.3353 80.5531 11.2815C79.2744 11.1935 79.1571 11.2824 79.4461 12.1167C79.6633 12.7434 79.562 13.066 79.1384 13.0984C78.7916 13.125 78.4845 12.8456 78.4564 12.4777C78.4223 12.0316 77.9565 11.843 77.0591 11.9116C76.2814 11.971 75.7309 12.25 75.7555 12.572C75.7814 12.9163 75.1048 13.2054 73.9849 13.3282C71.9219 13.5542 71.2977 14.0034 72.3079 14.5354C72.7763 14.7822 72.819 14.9158 72.4393 14.9497C72.1313 14.9769 71.9019 15.3003 71.9301 15.6683C71.9582 16.0363 71.6783 16.3605 71.3081 16.3888C70.9379 16.4171 70.612 16.1392 70.5839 15.7712C70.5558 15.4033 70.7347 15.0868 70.9815 15.0679C71.2283 15.049 71.4149 14.8329 71.3961 14.5876C71.3447 13.915 70.1396 14.1453 69.9218 14.869C69.8059 15.2538 69.3062 15.4535 68.6447 15.3793C67.6405 15.2673 67.5811 15.3759 67.8618 16.8102C68.1507 18.286 69.341 19.2439 69.8466 18.4071C69.9744 18.1959 70.6318 17.9451 71.307 17.8504C71.9822 17.7558 72.786 17.636 73.0921 17.5843C73.3987 17.5326 74.1138 17.5941 74.6823 17.7207C75.4537 17.8928 75.7016 17.7711 75.6611 17.2408C75.6169 16.6632 75.8271 16.5955 76.7911 16.878C78.5732 17.3999 80.1688 17.1649 80.1095 16.3888C80.0776 15.9727 80.4819 15.6874 81.1801 15.634C81.8357 15.5839 82.3215 15.8047 82.3491 16.1646C82.4136 17.0094 85.9676 16.7915 86.2274 15.9269C86.331 15.5825 86.9562 15.27 87.6163 15.2321C89.9032 15.1012 90.3788 14.9276 90.3264 14.2421C90.2974 13.8634 90.5288 13.5667 90.8402 13.5833C91.1519 13.5994 91.8661 13.5537 92.4279 13.4812C93.3026 13.369 93.3713 13.2287 92.907 12.5047C92.4648 11.8145 92.4942 11.6974 93.0682 11.867C93.4552 11.9819 93.7929 12.3553 93.819 12.697C93.8451 13.0386 94.1479 13.2967 94.4916 13.2705C94.8353 13.2442 95.2543 13.5118 95.4231 13.865C95.8725 14.8086 101.264 14.1366 102.417 12.9934C103.303 12.1141 104.364 11.7769 103.991 12.4931C103.872 12.7206 104.29 12.9641 104.919 13.0349C105.548 13.1053 106.159 12.9773 106.277 12.7507C106.395 12.5237 106.689 12.4394 106.929 12.5632C107.17 12.6866 107.35 12.5749 107.33 12.3154C107.31 12.0558 107.71 11.8112 108.218 11.7724C108.726 11.7336 109.033 11.912 108.899 12.169C108.749 12.4563 109.398 12.5534 110.584 12.4215C111.87 12.2783 112.105 12.1764 111.289 12.1159C110.417 12.0511 110.126 11.8239 110.276 11.3257C110.392 10.9414 110.622 10.7847 110.789 10.9774C111.257 11.5208 113.112 12.2955 113.816 12.2417C114.163 12.2151 115.311 11.2494 116.366 10.0952C117.679 8.65887 118.302 8.22727 118.34 8.72636C118.37 9.12687 117.813 9.85942 117.102 10.3535C115.646 11.3651 115.831 12.0876 117.512 11.9591C118.229 11.9043 118.507 11.7009 118.283 11.395C118.031 11.0522 118.168 11.0251 118.764 11.2994C119.817 11.7842 121.246 11.3148 121.184 10.5044C121.158 10.1654 121.338 9.87209 121.585 9.85322C121.832 9.83435 122.054 10.0865 122.079 10.4134C122.151 11.3465 127.428 10.8358 127.61 9.87849C127.722 9.28444 127.766 9.29412 127.858 9.93441C127.987 10.829 128.908 10.8869 129.634 10.0454C130.011 9.60829 130.141 9.59611 130.172 9.99484C130.216 10.5782 138.095 9.9503 138.994 9.2921C139.267 9.09129 139.613 9.17161 139.763 9.4702C139.97 9.88454 140.129 9.85174 140.438 9.33063C140.66 8.95523 140.731 8.49801 140.597 8.31404C140.462 8.13053 140.674 8.07574 141.069 8.19229C141.463 8.30928 141.803 8.64125 141.825 8.93071C141.869 9.50561 142.737 9.57121 146.138 9.2573C147.371 9.14333 149.998 8.97252 151.977 8.87732C158.28 8.57444 158.666 8.5238 158.803 7.98399C158.895 7.61669 159.157 7.64242 159.656 8.06812C160.565 8.84294 163.345 8.64791 165.261 7.67459C166.527 7.03186 166.857 7.00661 167.646 7.49232C168.764 8.18198 169.695 8.18216 168.887 7.49297C168.098 6.82066 168.115 6.29589 168.926 6.23386C169.296 6.20556 169.622 6.48345 169.65 6.85141C169.678 7.21937 170.056 7.50989 170.489 7.49651C170.923 7.48358 171.887 7.47401 172.632 7.47538C173.376 7.47676 174.118 7.25228 174.279 6.97662C174.475 6.64132 174.589 6.65958 174.622 7.03206C174.649 7.33864 175.125 7.55121 175.681 7.50517C176.382 7.44658 176.504 7.3229 176.08 7.09828C175.589 6.83925 175.591 6.65876 176.09 6.17824C176.597 5.69137 176.814 5.74112 177.268 6.44756C177.6 6.9663 178.086 7.19119 178.476 7.00703C178.835 6.83782 179.394 6.88393 179.718 7.10944C180.678 7.77671 182.163 7.73317 182.908 7.01631C183.36 6.58203 183.617 6.52292 183.642 6.84851C183.682 7.3797 185.145 7.4321 185.589 6.91813C186.185 6.22695 189.406 6.02286 189.825 6.64985C190.269 7.31354 192.205 7.35839 195.049 6.7709C195.974 6.5795 197.343 6.54798 198.09 6.70034C198.837 6.85315 199.437 6.81631 199.421 6.61873C199.406 6.42115 199.899 6.2211 200.516 6.17393C201.133 6.12675 201.657 6.3406 201.681 6.64924C201.732 7.31959 203.462 7.72113 203.62 7.09899C203.679 6.86069 204.47 6.43914 205.375 6.16221C206.852 5.71058 207.028 5.75096 207.089 6.55377C207.15 7.34544 207.348 7.39759 208.817 7.00716C209.729 6.76468 210.331 6.73483 210.154 6.94078C209.69 7.48323 212.747 8.18083 213.34 7.66799C213.628 7.41946 213.968 7.42804 214.159 7.68844C214.338 7.93357 215.247 8.07582 216.179 8.0046C217.11 7.93338 218.029 8.00848 218.22 8.17151C218.761 8.63262 223.179 8.3052 223.769 7.76076C224.147 7.41106 224.312 7.48417 224.353 8.01982C224.398 8.61613 224.836 8.72713 226.539 8.57316C227.71 8.46704 229.357 8.45823 230.198 8.55358C231.188 8.66546 231.832 8.52785 232.021 8.16435C232.246 7.7331 232.471 7.72981 232.986 8.14981C233.961 8.94597 236.069 9.61434 236.399 9.23249C236.914 8.63501 238.817 8.68871 239.113 9.30942C239.342 9.78943 239.532 9.79505 240.01 9.33498C240.617 8.75164 241.77 8.96315 241.44 9.59672C241.286 9.8906 242.558 9.85575 244.214 9.52009C244.52 9.45813 244.759 9.05494 244.745 8.6244C244.726 7.99828 244.784 7.97141 245.034 8.49019C245.206 8.84713 245.665 9.33651 246.053 9.57776C246.442 9.81902 246.644 10.2392 246.502 10.5111C246.342 10.8172 246.564 10.8962 247.083 10.7179C247.545 10.5597 248.683 10.7203 249.612 11.0746C250.542 11.4292 252.303 11.6431 253.528 11.5495C254.751 11.456 255.766 11.5533 255.782 11.7656C255.799 11.9784 256.115 12.1292 256.485 12.1009C256.855 12.0726 257.141 11.8273 257.12 11.5557C257.099 11.2841 257.394 11.1543 257.775 11.2674C258.156 11.38 258.453 11.2779 258.435 11.0406C258.381 10.331 259.626 10.4579 259.978 11.1976C260.461 12.2096 260.434 12.2475 259.18 12.3435C258.083 12.4273 258.067 12.4671 258.866 13.1485C259.465 13.6589 259.747 13.7033 259.849 13.3021C259.946 12.9192 260.491 13.061 261.552 13.7452C262.54 14.3817 263.391 14.6203 263.868 14.3954C264.315 14.1849 264.801 14.2815 265.059 14.6323C265.299 14.9585 265.855 15.1981 266.295 15.1645C266.736 15.1313 267.14 15.3529 267.194 15.6565C267.249 15.9606 267.331 16.376 267.378 16.5792C267.614 17.6131 271.616 18.1434 271.538 17.1305C271.515 16.8308 271.845 17.0079 272.272 17.524C272.698 18.0405 272.95 18.6489 272.831 18.8759C272.544 19.4272 273.504 20.0286 275.064 20.2754C275.82 20.3953 276.881 21.1485 277.689 22.1384C278.434 23.0526 279.293 23.789 279.598 23.7752C279.902 23.7613 280.331 24.2844 280.55 24.9383C280.769 25.5918 281.351 26.4948 281.843 26.9453C282.45 27.5013 282.654 28.0667 282.478 28.7064C282.336 29.2242 282.324 30.4355 282.452 31.3974C282.58 32.3598 282.418 33.6265 282.093 34.213C281.768 34.7995 281.525 35.587 281.554 35.9639C281.583 36.3403 281.4 36.6136 281.148 36.5714C280.896 36.5287 280.473 37.0155 280.207 37.6527C279.942 38.2898 279.289 39.0436 278.756 39.3279C278.224 39.6122 277.815 40.1886 277.847 40.6087C277.879 41.0293 277.632 41.5551 277.298 41.778C276.964 42.0009 276.669 42.7906 276.643 43.5329C276.607 44.5158 276.349 44.9137 275.694 44.997C274.512 45.1475 272.477 46.4304 271.188 47.8371C270.621 48.4565 270.1 48.923 270.031 48.8731C269.678 48.6193 265.651 50.8 264.822 51.6947C264.532 52.0076 264.313 52.5021 264.335 52.7934C264.358 53.0967 263.999 53.2556 263.496 53.1649C263.012 53.078 262.019 53.433 261.288 53.9545C260.558 54.4755 259.67 54.9243 259.315 54.9515C258.959 54.9787 257.971 55.7101 257.118 56.5765C256.267 57.4433 255.194 58.1179 254.735 58.0763C254.148 58.023 253.922 58.2753 253.972 58.9291C254.032 59.7123 253.852 59.8252 252.825 59.6507C251.816 59.4798 251.665 59.5672 251.946 60.158C252.174 60.6354 252.052 60.8901 251.58 60.9262C251.136 60.9602 250.95 60.7241 251.08 60.2915C251.221 59.8232 251.005 59.6243 250.404 59.6703C249.918 59.7074 249.533 59.9051 249.549 60.1094C249.564 60.3141 249.327 60.5345 249.022 60.6C244.141 61.6457 241.728 62.7794 241.641 64.0682C241.582 64.9435 241.505 64.9758 240.868 64.3911C240.147 63.7289 240.124 63.7329 236.322 65.2111C235.437 65.555 233.965 65.9906 233.049 66.1786C232.133 66.3671 231.166 66.7308 230.9 66.9867C230.634 67.2425 229.229 67.6752 227.776 67.9482C226.312 68.2235 224.231 69.0165 223.103 69.7299C221.469 70.7619 220.931 70.9183 220.371 70.5237C219.861 70.1648 219.442 70.1793 218.813 70.5782C218.34 70.8782 217.264 71.1762 216.422 71.2406C215.58 71.305 214.288 71.716 213.552 72.154C212.728 72.6446 210.463 73.169 207.658 73.5189C205.152 73.8317 202.767 74.2997 202.359 74.5593C201.95 74.8185 200.227 75.1696 198.531 75.3396C196.834 75.5097 194.654 75.9792 193.686 76.3834C192.718 76.7871 190.621 77.2538 189.026 77.4206C186.996 77.6333 185.829 77.9925 185.135 78.6199C184.273 79.3977 184.052 79.4379 183.45 78.9249C182.946 78.4951 182.469 78.4693 181.697 78.8302C181.114 79.1031 179.872 79.369 178.937 79.4212C178.002 79.4734 177.038 79.5749 176.795 79.6468C176.553 79.7192 175.716 79.7927 174.935 79.8106C174.155 79.8285 173.4 80.068 173.257 80.3422C173.114 80.6165 172.529 80.877 171.956 80.9208C171.384 80.9645 170.692 81.3144 170.418 81.6987C170.008 82.2747 169.809 82.3024 169.287 81.8578C168.503 81.1888 163.376 81.7625 162.486 82.6187C162.01 83.0773 161.789 83.0821 161.465 82.6394C161.155 82.2176 159.794 82.1907 156.071 82.5327C150.626 83.0329 148.894 83.5852 148.966 84.7981C149.009 85.5324 148.972 85.5321 148.462 84.7941C148.016 84.1494 147.844 84.12 147.561 84.6387C147.286 85.1419 147.142 85.0883 146.889 84.3885C146.671 83.7835 146.142 83.4973 145.242 83.4979C144.512 83.4985 143.929 83.6763 143.946 83.8935C143.962 84.1107 143.365 84.2641 142.618 84.2351C141.871 84.206 141.274 84.3643 141.291 84.5869C141.335 85.1653 139.977 85.4908 138.595 85.2335C137.705 85.0678 137.297 85.2313 136.949 85.8932C136.694 86.377 136.144 86.799 135.727 86.831C135.136 86.8761 135.078 86.7608 135.465 86.3126C136.52 85.0907 135.872 84.8015 132.746 85.097C131.017 85.2602 129.484 85.2338 129.341 85.0375C128.958 84.515 127.008 85.7071 126.846 86.5629C126.735 87.1537 126.686 87.1377 126.593 86.4804C126.491 85.752 126.107 85.7056 123.01 86.0504C121.103 86.2627 119.106 86.6275 118.574 86.8606C118.005 87.1105 117.476 87.1048 117.287 86.8474C117.11 86.6065 116.667 86.5507 116.301 86.7231C115.936 86.8955 115.396 86.8788 115.103 86.6859C113.562 85.6733 111.667 86.2164 111.18 87.8104C111.013 88.3579 110.95 88.3381 110.874 87.7145C110.806 87.1584 110.419 86.9624 109.546 87.0426C108.868 87.1043 107.81 87.1381 107.196 87.1168C105.964 87.0751 105.4 88.543 106.442 89.0779C106.759 89.2408 106.897 89.608 106.748 89.8935C106.358 90.6433 105.642 90.5913 105.582 89.8085C105.554 89.4406 105.322 89.1555 105.066 89.175C104.759 89.1985 104.748 88.8804 105.035 88.234C105.452 87.2932 105.386 87.27 103.196 87.5895C101.491 87.8387 100.912 87.7686 100.877 87.3097C100.84 86.8159 100.708 86.8147 100.2 87.304C99.8174 87.672 99.5554 87.7279 99.5339 87.446C99.5131 87.174 98.3355 87.0679 96.6934 87.1903C95.1509 87.3051 91.6289 87.5044 88.8679 87.6334C86.1065 87.7629 83.9523 88.0124 84.0813 88.1882C84.3937 88.6138 82.9285 88.1866 81.5487 87.4492C80.7474 87.0215 80.2498 87.0012 79.7377 87.3754C79.344 87.6635 78.6226 87.768 78.1075 87.6122C76.7463 87.1999 73.3855 87.495 71.4326 88.1984C70.1455 88.6615 69.6326 88.6877 69.3514 88.3045C69.1392 88.0148 67.8407 87.8557 66.3389 87.9355C64.152 88.052 63.5401 88.2607 62.7668 89.1565C61.6063 90.5009 60.748 90.6504 61.4101 89.3926C61.9682 88.3329 61.4212 87.6081 60.6964 88.4476C59.982 89.2752 59.2876 89.2063 59.8856 88.3674C60.1648 87.976 60.3169 87.6512 60.224 87.6458C60.1315 87.6407 58.7702 87.6223 57.1995 87.6051C54.6387 87.5771 54.2331 87.6911 53.2713 88.713L52.1989 89.8523L52.4013 88.6032C52.6217 87.2423 52.6525 87.2556 49.5405 87.3621C48.488 87.3977 47.6413 87.6105 47.6584 87.8348C47.6756 88.0592 47.3482 87.9514 46.931 87.5952C46.5134 87.2396 45.8162 86.9757 45.3814 87.0089C44.9466 87.0422 44.4521 86.9508 44.2822 86.8063C44.1127 86.6614 43.2069 86.5503 42.2702 86.5595C37.9435 86.6005 35.1639 86.3909 34.5791 85.9794C34.1068 85.6467 33.7664 85.6992 33.2657 86.1812C32.6931 86.7319 32.4916 86.7177 31.9502 86.0884C31.4697 85.5302 31.2629 85.4945 31.1195 85.9446C30.9695 86.4146 30.8349 86.4316 30.4946 86.0243C30.2557 85.7388 29.598 85.6307 29.0329 85.7843C28.4674 85.9383 26.8457 85.7559 25.4286 85.3793C24.0118 85.0022 22.5002 84.8356 22.0702 85.0085C21.5906 85.2008 21.268 85.0954 21.2364 84.7353C21.1979 84.3031 21.0807 84.3336 20.7903 84.8515C20.4531 85.4533 20.2729 85.4213 19.5395 84.6309C19.0678 84.1232 17.4878 83.358 16.0275 82.9304C14.5672 82.5032 13.3627 82.0211 13.3503 81.8592C13.338 81.6973 12.6273 81.7005 11.7712 81.8669C10.34 82.145 10.2073 82.0744 10.1248 80.9941C10.0518 80.0392 9.77301 79.7878 8.63369 79.6506C7.64471 79.5315 6.84883 78.9688 5.92829 77.7377C5.21086 76.7783 4.6665 75.9218 4.71842 75.8334C4.7708 75.7451 4.50322 75.4627 4.12387 75.206C3.74496 74.9492 3.22046 73.5968 2.95806 72.2015C2.5392 69.9698 2.58498 69.5886 3.33982 69.036C3.81172 68.6908 4.16301 67.9547 4.12062 67.4003C4.07827 66.8464 4.2361 66.3781 4.47123 66.3601C4.70636 66.3421 5.18081 65.5993 5.52485 64.7094C5.8689 63.8195 6.43085 63.07 6.77278 63.0439C7.11471 63.0177 7.37538 62.7434 7.35178 62.4348C7.32815 62.1257 7.69351 61.5913 8.16368 61.2471C8.63386 60.903 8.98977 60.245 8.95461 59.7852C8.91813 59.308 9.29135 58.8115 9.82485 58.6285C10.576 58.3706 10.6854 58.089 10.3831 57.1875C10.0161 56.094 10.5574 55.5771 11.1802 56.4263C11.3516 56.6599 11.6599 56.8382 11.8659 56.8225C12.4236 56.7798 12.7334 55.4063 12.3129 54.8413C12.1117 54.5705 11.9777 53.9935 12.0162 53.5585C12.0543 53.1241 11.8592 52.7855 11.5823 52.8066C11.3055 52.8278 11.2149 53.0308 11.3812 53.2576C11.5475 53.4845 11.1874 53.8345 10.5809 54.0361C9.97435 54.2377 9.38539 54.7933 9.27205 55.2707C9.15918 55.7486 8.87827 56.1537 8.64807 56.1713C8.41788 56.1889 8.2481 56.4477 8.27094 56.7465C8.29379 57.0453 7.81044 57.7898 7.19726 58.4005C6.5836 59.0109 5.89482 59.9788 5.6668 60.5502C5.43881 61.1221 4.62397 61.9408 3.85651 62.3696C3.08774 62.7989 2.48325 63.4938 2.51016 63.9166C2.54183 64.4135 2.31457 64.6112 1.86617 64.4786C1.06261 64.2404 1.03448 64.758 1.76572 66.3054C2.19745 67.2176 2.13885 67.5021 1.4277 67.953C0.955047 68.2529 0.707548 68.6877 0.87787 68.9201C1.04816 69.152 0.953276 69.6702 0.667118 70.0716C0.280285 70.6144 0.28839 70.992 0.699634 71.5478C1.03832 72.0046 1.11567 72.55 0.900097 72.9537C0.419949 73.8522 0.614783 76.0759 1.16986 76.0334C1.41666 76.0146 1.67695 76.55 1.74781 77.2229C1.81866 77.8958 1.95972 78.1883 2.06056 77.8719C2.2992 77.1265 2.96915 77.0753 2.96071 77.8031C2.94964 78.7505 4.88436 81.5814 5.51033 81.5336C5.83476 81.5088 6.12199 81.7708 6.14835 82.1155C6.17846 82.5094 6.5033 82.6375 7.02008 82.4603C7.58393 82.2669 8.18705 82.5873 8.93396 83.4777C9.5334 84.1927 10.4144 84.7475 10.891 84.7111C11.368 84.6746 11.7809 84.9459 11.8091 85.3138C11.8372 85.6818 12.1631 85.9597 12.5333 85.9314C12.9035 85.9031 13.223 86.0976 13.2433 86.3629C13.2636 86.6288 13.5259 86.7348 13.8255 86.5988C14.1257 86.4628 14.3061 86.1368 14.2269 85.8741C14.1477 85.6115 14.3924 85.4882 14.7701 85.6002C15.1479 85.7122 15.477 86.0607 15.5009 86.3743C15.5435 86.9309 18.2182 88.1884 19.2 88.1134C19.4715 88.0926 19.7062 88.2461 19.7221 88.4539C19.738 88.6617 20.3783 88.8016 21.1455 88.765C21.9122 88.7279 22.9242 88.9941 23.3942 89.3561C23.9677 89.7977 24.6273 89.8881 25.4007 89.6312C26.0768 89.4068 26.5674 89.4356 26.5877 89.701C26.6067 89.9499 27.0181 90.0176 27.5019 89.8518C28.4945 89.5108 28.6151 88.9269 27.7488 88.654C27.4311 88.554 27.6241 88.4213 28.1777 88.3597C28.7599 88.2945 29.2048 88.5108 29.2324 88.8725C29.2894 89.6174 31.8695 90.4883 33.2863 90.2409C33.8373 90.1449 34.3028 90.2529 34.3203 90.4812C34.373 91.1712 35.8152 91.3795 36.432 90.7864C36.8789 90.3561 37.0211 90.386 37.0618 90.919C37.1016 91.439 37.8043 91.6159 39.9381 91.643C41.4914 91.6628 43.3354 91.6134 44.037 91.5337C45.1861 91.4028 45.2782 91.267 44.9673 90.1652C44.7246 89.3049 44.8211 88.8489 45.2929 88.6262C46.3106 88.1465 46.4543 88.2082 46.2107 89.0186C46.0387 89.5907 46.1918 89.6921 46.8731 89.4583C48.0025 89.0709 48.0491 89.5617 46.9692 90.4675C46.1985 91.1141 46.1941 91.2275 46.9101 91.9026C47.4587 92.4197 47.9005 92.5007 48.4102 92.1778C48.8195 91.9177 49.4168 91.8658 49.7893 92.0571C50.1506 92.2426 50.5838 92.2951 50.7515 92.1733C50.9195 92.0515 51.6456 92.1265 52.3656 92.3402C53.0856 92.5538 54.6909 92.7411 55.9333 92.7569C57.1757 92.7723 58.5798 92.8722 59.0533 92.9787C59.614 93.1045 59.7944 93.0077 59.5697 92.7014C59.0527 91.9962 59.9734 92.0726 60.6753 92.7932C61.5364 93.678 62.0849 93.5203 62.0002 92.4129C61.9473 91.7202 62.0876 91.5718 62.5221 91.8588C62.8491 92.0752 63.7896 92.4214 64.612 92.6281C66.0156 92.9811 66.1027 92.9399 66.0281 91.9645C65.9773 91.3 66.2657 90.8158 66.8269 90.6231C67.5178 90.3859 67.6338 90.4744 67.3709 91.0382C66.7853 92.2929 68.4968 93.267 70.9389 93.0695C72.1249 92.9734 73.9694 93.0249 75.0381 93.1832C76.1726 93.3512 77.0716 93.2973 77.1987 93.053C77.3184 92.8231 77.2023 92.6512 76.9412 92.6711C76.68 92.6911 76.454 92.5509 76.4393 92.3591C76.3972 91.8083 78.8766 90.8068 79.4953 91.1246C79.8618 91.3129 79.7013 91.5396 79.029 91.7843L78.0036 92.157L79.0902 92.9326C80.4698 93.9172 86.8153 93.5923 87.1378 92.5205C87.3951 91.6651 88.1194 91.6402 88.184 92.4845C88.2154 92.8957 88.6556 93.1214 89.3269 93.0701C90.2454 92.9998 90.3968 92.7779 90.2804 91.6738C90.1795 90.7143 89.8961 90.3434 89.2281 90.2962C88.4312 90.2396 88.3953 90.154 88.9497 89.6248C89.4873 89.1113 89.7754 89.3257 90.8235 91.0212L92.0617 93.0243L92.2162 91.6971C92.3012 90.967 92.1802 89.94 91.9482 89.4144C91.6208 88.6741 91.6773 88.5038 92.1987 88.6582C92.5686 88.7676 92.8922 89.0865 92.9172 89.3668C92.9446 89.6716 93.1016 89.6169 93.3081 89.2315C93.7931 88.3246 94.7787 88.9603 94.5278 90.0184C94.4139 90.5 94.5223 90.8784 94.7691 90.8595C95.0159 90.8407 95.3768 91.2168 95.5709 91.6955C95.765 92.1741 96.213 92.5436 96.5666 92.5166C96.9202 92.4895 97.225 92.6681 97.2438 92.9134C97.2892 93.5079 98.9125 93.3569 100.019 92.655C100.701 92.2229 101.006 92.2256 101.338 92.6664C101.672 93.1123 101.757 93.0663 101.716 92.4593C101.653 91.5284 102.86 91.3414 103.918 92.1183C104.333 92.423 105.439 92.7296 106.375 92.7994C107.703 92.898 108.066 92.7782 108.026 92.2551C107.974 91.582 109.074 91.6177 110.717 92.3414C111.088 92.5054 111.837 92.4316 112.381 92.1769C112.974 91.8996 113.489 91.8782 113.668 92.1233C114.108 92.7227 116.956 92.3986 117.127 91.7297C117.233 91.317 117.459 91.2754 117.943 91.5803C118.312 91.8132 119.777 91.965 121.2 91.9181C123.487 91.8423 123.902 91.6882 124.786 90.5811L125.786 89.3298L126.012 90.3497C126.224 91.3079 126.414 91.3503 129.147 91.0499C130.747 90.8741 132.257 90.6941 132.502 90.6494C132.746 90.6051 135.714 90.4966 139.097 90.4076C144.867 90.2562 145.257 90.1941 145.399 89.3968C145.533 88.6468 145.564 88.6382 145.663 89.3238C145.762 90.0164 146.284 90.2601 147.218 90.0496C147.893 89.897 160.837 88.4041 162.002 88.3442C162.681 88.3093 163.224 88.0929 163.206 87.8632C163.187 87.6107 163.599 87.5707 164.251 87.7622C164.844 87.9358 165.584 87.8927 165.896 87.6665C166.211 87.4383 166.816 87.4378 167.253 87.6654C167.745 87.9204 168.696 87.8884 169.77 87.5807C170.72 87.3085 171.683 87.1159 171.911 87.1528C172.14 87.19 172.453 86.9772 172.608 86.6805C172.82 86.2726 173.135 86.2481 173.892 86.5792C174.444 86.8205 175.07 86.8911 175.284 86.7361C175.498 86.5811 176.93 86.2594 178.467 86.0221C180.003 85.7845 181.375 85.3701 181.515 85.1009C181.655 84.8318 182.156 84.5894 182.628 84.5627C183.81 84.4952 185.133 84.3919 186.065 84.2946C186.496 84.2496 186.826 83.9242 186.799 83.5714C186.772 83.2186 187.053 82.9068 187.423 82.8785C187.794 82.8502 188.112 83.0278 188.131 83.2731C188.149 83.5184 188.455 83.6969 188.81 83.6698C189.269 83.6347 189.408 83.0996 189.292 81.8169C189.202 80.8248 189.244 79.8795 189.385 79.7162C189.526 79.5528 189.682 79.9447 189.731 80.5874C189.83 81.8924 190.851 83.9623 191.375 83.9222C192.216 83.858 193.089 83.1941 193.048 82.6513C192.971 81.6469 193.951 81.3001 194.632 82.091C195.395 82.9779 196.875 82.4978 196.407 81.5152C196.228 81.1377 196.353 80.85 196.71 80.8227C197.046 80.797 197.461 81.0681 197.631 81.4252C197.801 81.7823 198.399 82.0161 198.96 81.9445C199.717 81.848 199.773 81.7773 199.179 81.6707C198.249 81.5036 198.036 80.7213 198.902 80.6551C199.225 80.6304 199.903 80.8648 200.408 81.1757C201.056 81.5752 201.481 81.5925 201.852 81.2348C202.223 80.8781 202.391 80.8823 202.419 81.2489C202.446 81.5946 202.942 81.641 203.897 81.3872C205.432 80.9786 205.953 80.8491 210.43 79.7639C212.014 79.3795 213.7 78.8499 214.176 78.5861C214.653 78.3227 215.549 78.0895 216.168 78.0682C217.777 78.0134 220.764 77.1866 221.229 76.6674C221.446 76.4247 222.006 76.197 222.474 76.1612C222.942 76.1255 223.832 75.6806 224.452 75.172C225.22 74.5427 225.875 74.3397 226.504 74.5351C227.967 74.989 228.554 74.8575 228.218 74.152C228.022 73.7408 228.173 73.4825 228.63 73.4476C229.026 73.4173 229.366 73.5932 229.385 73.8385C229.404 74.0838 229.722 74.2613 230.092 74.233C230.887 74.1722 230.891 74.1226 230.21 72.683C229.869 71.9612 229.839 71.5607 230.123 71.539C230.364 71.5206 230.584 71.8066 230.612 72.1745C230.64 72.5425 231.05 72.814 231.523 72.7778C231.996 72.7416 232.465 72.9013 232.566 73.1327C232.673 73.3794 233.581 73.1821 234.757 72.6566C236.276 71.9774 236.865 71.4196 237.176 70.3654L237.587 68.972L238.344 69.8889C239.065 70.762 239.187 70.7683 240.886 70.023C241.867 69.5922 242.828 69.3213 243.022 69.4209C243.215 69.5201 243.247 69.1364 243.092 68.5677C242.815 67.5521 243.725 66.3036 244.099 67.187C244.204 67.4347 244.578 67.9731 244.932 68.3839C245.499 69.0431 245.776 69.0511 247.29 68.4522C248.234 68.079 249.833 67.3247 250.843 66.7755C251.854 66.2263 252.989 65.7532 253.367 65.7243C253.745 65.6954 254.815 65.1089 255.746 64.4209C256.676 63.733 257.73 63.1477 258.088 63.1203C258.445 63.093 258.985 62.7992 259.288 62.4678C259.59 62.1365 260.512 61.7592 261.335 61.6303C262.159 61.5009 263.237 61.0654 263.732 60.662C264.226 60.2586 264.989 59.901 265.428 59.8675C265.866 59.834 266.202 59.5055 266.174 59.1375C266.146 58.7624 266.523 58.4379 267.034 58.3988C267.536 58.3605 268.039 58.0192 268.153 57.6404C268.267 57.2615 268.849 56.9143 269.445 56.8686C270.19 56.8117 270.637 56.4253 270.872 55.6381C271.205 54.5152 272.099 53.9826 272.167 54.8661C272.217 55.5258 273.074 55.3414 273.784 54.5182C274.126 54.1219 274.748 53.7716 275.165 53.7397C275.583 53.7077 276.09 53.2311 276.293 52.6808C276.496 52.1301 277.048 51.432 277.52 51.1291C277.991 50.8261 278.789 50.0927 279.292 49.4988C279.795 48.9054 280.366 48.3987 280.563 48.3734C280.759 48.3476 281.376 47.658 281.934 46.8402C282.492 46.0223 283.465 44.7846 284.097 44.0903C285.628 42.4054 287.852 36.9695 286.654 37.8377C285.789 38.465 285.946 36.3324 286.935 34.0344C287.53 32.6516 287.849 31.4159 287.644 31.2884C287.439 31.1606 287.165 29.6679 287.035 27.9713C286.876 25.9032 286.609 24.8389 286.224 24.7432C285.908 24.6646 285.63 24.3378 285.605 24.0166C285.581 23.6951 285.268 23.3457 284.911 23.2402C284.554 23.1342 284.08 22.4447 283.857 21.7076C283.634 20.9705 283.256 20.2672 283.018 20.1446C282.779 20.0225 282.543 19.4829 282.493 18.9461C282.443 18.4093 281.916 17.4945 281.322 16.9132C279.844 15.4656 276.68 13.5442 276.724 14.1195C276.744 14.3773 276.457 14.6114 276.087 14.6397C275.717 14.668 275.401 14.5226 275.385 14.317C275.37 14.1109 274.834 13.7521 274.196 13.5201C273.558 13.2876 273.003 12.7428 272.964 12.3084C272.891 11.502 270.223 10.1533 268.9 10.2545C268.505 10.2846 267.868 9.97983 267.484 9.57763C267.004 9.07464 266.729 9.01676 266.603 9.39291C266.478 9.76313 266.103 9.67064 265.441 9.10619C264.763 8.52734 264.139 8.38074 263.402 8.62556C262.806 8.82362 262.324 8.78149 262.305 8.52994C262.249 7.80206 258.894 6.24891 256.924 6.03925C255.923 5.93275 254.884 5.69142 254.615 5.50338C253.628 4.81176 248.84 3.8553 245.532 3.6892C244.496 3.63739 242.979 3.47521 242.161 3.32916C241.154 3.14955 240.686 3.22122 240.711 3.55171C240.732 3.81976 240.262 3.65693 239.668 3.18914C238.99 2.65554 237.746 2.32089 236.327 2.28984C235.084 2.26242 233.039 2.09255 231.784 1.91171C230.529 1.73131 228.327 1.59462 226.89 1.60759C225.453 1.621 224.019 1.45744 223.703 1.24429C223.387 1.03113 221.713 0.94645 219.984 1.05578C216.885 1.25185 216.143 1.21668 214.775 0.811184C213.531 0.442813 209.34 0.573924 209.371 0.980236C209.388 1.19833 209.014 1.20677 208.539 0.999C207.946 0.739285 207.528 0.794143 207.199 1.17551C206.837 1.59387 206.709 1.57722 206.673 1.10892C206.639 0.657111 206.488 0.708986 206.119 1.29929C205.548 2.21415 203.736 2.26973 203.093 1.39253C202.817 1.01658 202.221 0.959867 201.289 1.22044C200.342 1.48485 199.981 1.44741 200.16 1.10262C200.325 0.784923 200.056 0.829318 199.438 1.22156C198.621 1.73934 198.354 1.7346 197.89 1.195C197.386 0.609908 197.282 0.623733 196.875 1.32774C196.455 2.05565 196.415 2.056 196.336 1.33443C196.288 0.906499 196.198 0.541527 196.135 0.523927C196.071 0.506772 194.006 0.557028 191.545 0.636134C189.084 0.714829 186.808 0.594536 186.487 0.368752C186.087 0.0870808 185.816 0.125333 185.627 0.489274C185.446 0.835959 184.773 0.951987 183.693 0.822366C180.873 0.483528 179.107 0.663848 179.154 1.28603C179.178 1.60136 178.996 1.87503 178.749 1.8939C178.503 1.91277 178.334 1.69865 178.375 1.41787C178.415 1.13706 177.939 0.891718 177.317 0.872435C176.695 0.853152 175.721 0.727546 175.152 0.592952C174.369 0.408303 174.131 0.524299 174.173 1.06977C174.203 1.46671 174.464 1.77295 174.752 1.75092C175.039 1.72893 175.136 1.87275 174.965 2.0702C174.794 2.26809 174.374 2.10416 174.032 1.70594C173.185 0.721808 171.088 0.808532 169.333 1.90011C168.191 2.60964 167.766 2.69283 167.331 2.29043C166.915 1.90549 166.923 1.847 167.365 2.05189C167.724 2.21869 167.929 2.05539 167.897 1.62856C167.868 1.24633 167.586 0.952959 167.271 0.977042C166.573 1.03039 164.778 2.38967 164.082 3.39075C163.64 4.02748 163.564 3.99159 163.497 3.11563C163.435 2.31104 163.244 2.17902 162.544 2.45993C161.92 2.71041 161.653 2.60883 161.614 2.10573C161.575 1.58881 161.171 1.45192 160.108 1.59505C159.31 1.70322 158.342 1.97504 157.957 2.19962C157.573 2.42417 157.126 2.49597 156.965 2.35887C156.805 2.22133 154.816 2.19347 152.547 2.29652C149.427 2.43862 148.178 2.6705 147.422 3.24907C146.584 3.89098 146.378 3.91709 146.137 3.41196C145.835 2.77959 144.177 2.79149 143.293 3.43244C143.007 3.63959 142.881 3.95608 143.012 4.13534C143.144 4.3146 143.006 4.87427 142.705 5.37816C142.239 6.16032 140.767 6.5483 139.364 6.25894C138.977 6.17911 141.278 5.06111 141.703 5.12328C141.922 5.15498 141.95 4.86525 141.766 4.4787C141.582 4.09262 141.417 3.59066 141.4 3.36409C141.382 3.12458 139.918 3.17278 137.911 3.47877C133.832 4.10011 133.906 4.09541 132.297 3.84115C131.335 3.68899 131.053 3.8057 131.093 4.3369C131.14 4.95239 131 4.96937 129.863 4.4861C128.107 3.73931 124.753 4.05267 123.493 5.08126C122.767 5.67376 122.406 5.76642 122.251 5.40053C121.931 4.64307 119.613 4.95259 118.983 5.83654C118.49 6.52833 118.371 6.52353 117.667 5.78284C117.009 5.09067 116.813 5.06844 116.356 5.63542ZM122.227 6.43955C122.255 6.80751 122.078 7.14898 121.834 7.19862C121.589 7.24826 121.182 7.32964 120.929 7.37997C120.675 7.43033 120.299 7.787 120.093 8.17283C119.562 9.16763 119.493 7.97645 120.014 6.80345C120.483 5.74563 122.153 5.47127 122.227 6.43955ZM98.5107 9.12351C98.519 9.23189 98.3333 9.45963 98.0981 9.63014C97.8628 9.80065 97.6541 9.72733 97.6343 9.46775C97.6144 9.20818 97.8001 8.98 98.0469 8.96113C98.2937 8.94226 98.5024 9.01513 98.5107 9.12351ZM85.4801 12.5817C85.0933 13.3251 84.3383 12.8014 84.5898 11.9643C84.7283 11.5038 84.9664 11.3994 85.2754 11.6629C85.5356 11.8848 85.6277 12.2981 85.4801 12.5817ZM195.125 3.5579C195.153 3.92586 194.88 4.24959 194.517 4.27731C194.116 4.30798 193.939 4.0586 194.065 3.63894C194.18 3.26011 194.453 2.93637 194.673 2.91953C194.894 2.90269 195.097 3.18995 195.125 3.5579ZM199.779 2.86565C199.57 3.0669 199.263 3.44343 199.098 3.7028C198.926 3.97209 198.768 3.83969 198.73 3.39444C198.694 2.96075 198.996 2.58905 199.412 2.55725C199.823 2.52583 199.988 2.66436 199.779 2.86565ZM83.4435 12.7693C83.4623 13.0146 83.2757 13.2307 83.0289 13.2496C82.7821 13.2685 82.5648 13.0832 82.5461 12.8379C82.5273 12.5926 82.7139 12.3765 82.9607 12.3576C83.2075 12.3387 83.4248 12.524 83.4435 12.7693ZM97.6677 11.5042C97.53 11.6636 97.144 11.7093 96.8106 11.6051C96.4416 11.4902 96.5399 11.3764 97.061 11.315C97.5325 11.2597 97.8053 11.3447 97.6677 11.5042ZM206.88 3.81484C206.896 4.02581 206.598 4.1065 206.217 3.99386C205.836 3.88078 205.511 3.61537 205.495 3.40396C205.478 3.193 205.777 3.11231 206.158 3.22495C206.539 3.33803 206.864 3.60344 206.88 3.81484ZM216.267 2.6145C216.285 2.8598 215.947 3.08442 215.515 3.11385C214.843 3.15938 214.822 3.09639 215.369 2.68311C216.174 2.07425 216.225 2.07037 216.267 2.6145ZM75.2103 14.296C75.3816 14.5296 75.3077 14.7372 75.0465 14.7571C74.7853 14.7771 74.5559 14.5927 74.5372 14.3474C74.5184 14.1021 74.5919 13.8946 74.701 13.8863C74.81 13.878 75.039 14.0623 75.2103 14.296ZM192.552 5.32477C192.571 5.57007 192.372 5.78714 192.111 5.80711C191.85 5.82707 191.745 5.6332 191.879 5.37623C192.013 5.11926 192.211 4.90223 192.32 4.89389C192.429 4.88556 192.534 5.07947 192.552 5.32477ZM203.834 5.55913C204.279 6.01677 204.312 6.22012 203.948 6.24801C203.663 6.26979 203.291 5.99543 203.121 5.63831C202.95 5.28123 202.53 5.01057 202.186 5.03685C201.842 5.06313 201.545 4.8768 201.526 4.62303C201.481 4.04545 202.933 4.63387 203.834 5.55913ZM197.836 5.19177C197.698 5.35124 197.312 5.3969 196.979 5.29274C196.61 5.17784 196.708 5.06401 197.229 5.00263C197.701 4.94729 197.974 5.03231 197.836 5.19177ZM66.4357 16.6119C65.8954 17.2373 66.2622 18.1204 67.0348 18.0546C67.6555 18.0018 67.6841 17.9161 67.1714 17.6453C66.8149 17.4573 66.6449 17.0696 66.7937 16.7842C67.0913 16.2128 66.8715 16.1071 66.4357 16.6119ZM214.643 6.59847C214.506 6.75793 214.12 6.8036 213.786 6.69944C213.417 6.58454 213.516 6.4707 214.037 6.40933C214.508 6.35399 214.781 6.43901 214.643 6.59847ZM216.159 7.10888C216.178 7.35418 215.991 7.57032 215.744 7.58919C215.497 7.60806 215.28 7.4228 215.261 7.17749C215.243 6.93219 215.429 6.71605 215.676 6.69718C215.923 6.67831 216.14 6.86357 216.159 7.10888ZM221.112 6.95451C221.14 7.32246 220.961 7.63896 220.714 7.65783C220.467 7.67669 220.243 7.39108 220.214 7.02312C220.186 6.65517 220.365 6.33867 220.612 6.3198C220.859 6.30094 221.084 6.58655 221.112 6.95451ZM233.746 6.91225C233.776 7.29447 233.588 7.49902 233.33 7.36625C233.071 7.23347 232.846 6.93626 232.828 6.70523C232.81 6.4742 232.998 6.2701 233.245 6.25123C233.491 6.23236 233.717 6.53002 233.746 6.91225ZM250.654 9.63065C250.682 9.99861 250.402 10.3228 250.032 10.3511C249.662 10.3794 249.336 10.1015 249.308 9.73357C249.28 9.36561 249.56 9.0414 249.93 9.0131C250.3 8.9848 250.626 9.26269 250.654 9.63065ZM266.506 12.3441C266.405 12.6604 266.284 12.4171 266.238 11.8039C266.191 11.1906 266.273 10.9322 266.421 11.2291C266.569 11.5264 266.608 12.0281 266.506 12.3441ZM55.4841 33.7487C55.3503 34.0057 55.4549 34.1995 55.7161 34.1796C55.9772 34.1596 56.1759 33.9425 56.1572 33.6972C56.1384 33.4519 56.0342 33.258 55.9252 33.2664C55.8161 33.2747 55.6179 33.4917 55.4841 33.7487ZM49.6336 35.9904C49.6805 36.6037 49.8015 36.847 49.9024 36.5307C50.0037 36.2147 49.9653 35.713 49.8171 35.4156C49.6694 35.1187 49.5867 35.3772 49.6336 35.9904ZM40.2643 37.2514C39.6183 37.9997 39.687 38.6745 40.3782 38.3642C40.6785 38.2295 41.2868 38.3876 41.7307 38.7157C42.1747 39.0442 42.7422 39.1641 42.9924 38.9831C43.6018 38.5412 43.5134 37.8042 42.8573 37.8543C42.5684 37.8764 41.977 37.6215 41.544 37.2881C40.9363 36.82 40.6437 36.8119 40.2643 37.2514ZM34.3784 39.6681C34.242 39.8261 34.26 40.2271 34.4186 40.56C34.6498 41.0452 34.3051 41.1411 32.6787 41.0447C31.3874 40.9685 30.5519 41.1149 30.3787 41.4471C30.2292 41.7345 30.3208 41.9531 30.582 41.9331C30.8431 41.9132 31.0936 42.3736 31.1381 42.9561C31.2018 43.7888 31.4592 43.997 32.3409 43.9296C33.1311 43.8692 33.4442 43.6012 33.4 43.0232C33.331 42.12 34.5169 41.19 35.4231 41.437C35.8085 41.5421 35.8799 41.3433 35.6391 40.8377C35.3929 40.3218 35.4531 40.1709 35.828 40.3634C36.1306 40.5188 36.3631 40.4549 36.3452 40.2212C36.3274 39.9874 35.984 39.6992 35.5822 39.5801C34.6858 39.3144 34.6831 39.3146 34.3784 39.6681ZM37.2623 40.409C37.3252 41.2314 38.1753 41.4405 38.9836 40.8328C39.5888 40.3774 39.5959 40.3221 39.0204 40.546C38.6277 40.6989 38.063 40.616 37.7651 40.362C37.3649 40.0207 37.2335 40.033 37.2623 40.409ZM27.7258 42.6001C27.592 42.8571 27.6966 43.051 27.9578 43.031C28.2189 43.011 28.4547 43.2792 28.4813 43.6267C28.5513 44.5423 29.6037 44.6696 30.1341 43.8264C30.4766 43.2821 30.433 42.9728 29.957 42.5673C29.2081 41.9283 28.0666 41.9451 27.7258 42.6001ZM24.7886 44.031C24.3651 44.1764 24.0466 44.6575 24.0804 45.0999C24.1143 45.5424 23.8225 46.2062 23.4318 46.5748C22.8133 47.1577 22.7501 47.1455 22.9447 46.4796C23.0773 46.024 22.8996 45.6352 22.5042 45.5178C22.1394 45.4098 21.8555 45.5159 21.8736 45.7531C21.8918 45.9909 21.6038 46.2085 21.2336 46.2368C20.8634 46.2651 20.5754 46.4827 20.5935 46.7204C20.6117 46.9577 20.3361 47.0662 19.9805 46.9606C18.9488 46.6551 18.884 47.4603 19.8714 48.326C20.6701 49.0267 20.7703 49.0325 20.7199 48.3733C20.6885 47.9625 20.9657 47.6031 21.3359 47.5748C21.7061 47.5465 22.0331 47.8382 22.0625 48.2236C22.1521 49.3948 24.0435 48.6553 24.3015 47.3481C24.4431 46.6316 24.5655 46.4975 24.6309 46.9864C24.7478 47.8541 25.4387 47.9708 25.8444 47.1911C25.9896 46.9117 26.4938 46.7525 26.9647 46.8372C27.6639 46.9627 27.7314 46.8526 27.3347 46.2337C27.0677 45.8176 26.9626 45.3457 27.1011 45.1852C27.3768 44.8654 26.283 43.5758 25.8361 43.6939C25.683 43.7343 25.2122 43.886 24.7886 44.031ZM27.706 45.2933C27.159 45.7066 27.1801 45.7696 27.8518 45.7241C28.2842 45.6946 28.6222 45.47 28.6035 45.2247C28.5619 44.6806 28.5112 44.6845 27.706 45.2933ZM16.2059 49.5241C14.0091 51.1819 13.7959 51.5805 14.9999 51.7787C15.4396 51.8509 15.1375 51.879 14.3276 51.8408C12.8038 51.7689 12.3532 52.4408 13.6643 52.8291C14.1372 52.9693 14.3492 53.3806 14.2441 53.9544C14.1531 54.4517 14.2617 54.8449 14.4856 54.8277C14.709 54.8107 14.8614 54.3953 14.8239 53.9046C14.7496 52.9324 15.071 52.7858 16.0935 53.3249C16.8638 53.7312 18.3515 52.8162 18.2873 51.976C18.2628 51.6557 18.58 51.5076 19.0498 51.6193C19.6985 51.7734 19.7229 51.7321 19.1752 51.4056C18.6214 51.0752 18.592 50.8666 19.0151 50.273C19.4362 49.6827 19.4092 49.4008 18.872 48.7788C18.2426 48.05 18.1109 48.0865 16.2059 49.5241ZM7.82911 59.8228C8.00295 60.0598 7.68214 60.2795 7.1039 60.3201C6.26973 60.3781 6.19228 60.2979 6.7073 59.9086C7.50139 59.3086 7.45472 59.3122 7.82911 59.8228ZM270.772 51.3839C270.943 51.6175 270.757 51.8336 270.357 51.8642C269.958 51.8947 269.741 51.7094 269.875 51.4525C270.008 51.1955 270.195 50.9794 270.289 50.9721C270.383 50.9649 270.601 51.1502 270.772 51.3839ZM263.434 56.6746C263.316 57.0645 263.117 57.2951 262.99 57.1872C262.864 57.0793 262.877 56.7665 263.02 56.4927C263.408 55.7471 263.677 55.8656 263.434 56.6746ZM262.292 59.4536C262.175 59.8435 261.975 60.074 261.849 59.9662C261.722 59.8583 261.735 59.5455 261.878 59.2717C262.266 58.526 262.535 58.6445 262.292 59.4536ZM251.934 61.7963C251.953 62.0416 251.754 62.2587 251.493 62.2787C251.232 62.2986 251.127 62.1048 251.261 61.8478C251.395 61.5908 251.593 61.3738 251.702 61.3655C251.811 61.3571 251.916 61.551 251.934 61.7963ZM253.505 61.6763C253.676 61.9099 253.501 62.1252 253.117 62.1546C252.732 62.184 252.402 62.0073 252.383 61.762C252.364 61.5167 252.539 61.3015 252.771 61.2837C253.004 61.266 253.334 61.4426 253.505 61.6763ZM224.347 72.8778C224.365 73.1231 224.179 73.3393 223.932 73.3581C223.685 73.377 223.468 73.1917 223.449 72.9464C223.43 72.7011 223.617 72.485 223.864 72.4661C224.111 72.4472 224.328 72.6325 224.347 72.8778ZM51.1495 90.2013C51.3667 90.3386 51.2344 90.5967 50.8549 90.7756C50.3579 91.0101 50.1445 90.8344 50.0921 90.1489C50.052 89.6253 50.1848 89.3666 50.3867 89.5746C50.5885 89.7821 50.9319 90.0645 51.1495 90.2013ZM59.0064 90.2758C58.8688 90.4352 58.4828 90.4809 58.1494 90.3767C57.7804 90.2618 57.8787 90.148 58.3998 90.0866C58.8713 90.0313 59.1441 90.1163 59.0064 90.2758ZM169.199 83.5989C169.228 83.9834 168.845 84.2989 168.298 84.3408C167.502 84.4016 167.429 84.2964 167.853 83.7019C168.132 83.3104 168.537 82.9766 168.754 82.9601C168.97 82.9435 169.171 83.231 169.199 83.5989ZM120.08 87.5785C120.252 87.8122 120.065 88.0283 119.666 88.0589C119.266 88.0894 119.049 87.9041 119.183 87.6472C119.317 87.3902 119.503 87.1741 119.598 87.1668C119.692 87.1596 119.909 87.3449 120.08 87.5785ZM102.369 89.1023C102.376 89.1946 102.098 89.5433 101.751 89.8771C101.234 90.3742 101.11 90.3527 101.065 89.76C101.034 89.3622 101.312 89.0134 101.683 88.9851C102.053 88.9568 102.361 89.0095 102.369 89.1023ZM131.987 86.8661C131.995 86.9745 131.809 87.2022 131.574 87.3727C131.339 87.5432 131.13 87.4699 131.11 87.2104C131.09 86.9508 131.276 86.7226 131.523 86.7037C131.77 86.6849 131.978 86.7577 131.987 86.8661ZM112.143 89.5312C112.493 89.5045 112.809 89.884 112.847 90.3746C112.884 90.8652 112.8 91.2755 112.659 91.2862C112.143 91.3257 111.255 90.2487 111.092 89.3873C111 88.9008 111.056 88.7454 111.216 89.0413C111.376 89.3377 111.793 89.558 112.143 89.5312ZM93.5517 91.8498C93.5956 92.4247 93.8468 92.7236 94.1722 92.5875C94.4731 92.4617 94.6985 92.091 94.6735 91.7641C94.6485 91.4371 94.3694 91.105 94.0529 91.0264C93.7106 90.9414 93.5077 91.2749 93.5517 91.8498ZM122.134 89.7489C122.018 90.1153 121.904 90.0178 121.843 89.4998C121.787 89.0312 121.873 88.76 122.033 88.8966C122.194 89.0333 122.239 89.417 122.134 89.7489ZM123.494 90.9065C123.666 91.1401 123.491 91.3553 123.106 91.3847C122.722 91.4141 122.391 91.2375 122.372 90.9922C122.354 90.7469 122.528 90.5317 122.761 90.5139C122.993 90.4962 123.323 90.6728 123.494 90.9065Z" fill="#E9766C"/>
</svg>
