<svg width="32" height="32" viewBox="0 0 32 32" fill="none" xmlns="http://www.w3.org/2000/svg">
<path d="M2.75 8.00004C2.75 5.83693 4.50355 4.08337 6.66667 4.08337H20C22.1631 4.08337 23.9167 5.83693 23.9167 8.00004V9.41671H25.3333C27.4964 9.41671 29.25 11.1703 29.25 13.3334V21.3334C29.25 23.4965 27.4964 25.25 25.3333 25.25H23.9167V29.3334C23.9167 29.839 23.6121 30.2947 23.145 30.4882C22.6779 30.6817 22.1403 30.5748 21.7828 30.2173L16.8156 25.25H12C11.3749 25.25 10.7834 25.1031 10.2588 24.8423L10.2172 24.8839C9.85972 25.2414 9.32207 25.3484 8.85498 25.1549C8.38789 24.9614 8.08333 24.5056 8.08333 24V19.9167H6.66667C4.50355 19.9167 2.75 18.1632 2.75 16V8.00004ZM12.3511 22.75H17.3333C17.6649 22.75 17.9828 22.8817 18.2172 23.1162L21.4167 26.3156V24C21.4167 23.3097 21.9763 22.75 22.6667 22.75H25.3333C26.1157 22.75 26.75 22.1158 26.75 21.3334V13.3334C26.75 12.551 26.1157 11.9167 25.3333 11.9167H23.9167V16C23.9167 18.1632 22.1631 19.9167 20 19.9167H15.1844L12.3511 22.75ZM21.4167 8.00004C21.4167 7.21764 20.7824 6.58337 20 6.58337H6.66667C5.88426 6.58337 5.25 7.21764 5.25 8.00004V16C5.25 16.7824 5.88426 17.4167 6.66667 17.4167H9.33333C10.0237 17.4167 10.5833 17.9764 10.5833 18.6667V20.9823L13.7828 17.7828C14.0172 17.5484 14.3351 17.4167 14.6667 17.4167H20C20.7824 17.4167 21.4167 16.7824 21.4167 16V8.00004Z" fill="#E9766C"/>
</svg>
